<svg height="512pt" viewBox="0 0 511 512" width="512pt" xmlns="http://www.w3.org/2000/svg"><g fill="#f9b200"><path d="m39.976562 49.871094h-21.578124c-5.742188 0-10.398438-4.652344-10.398438-10.394532v-21.578124c0-5.742188 4.65625-10.398438 10.398438-10.398438h21.578124c5.742188 0 10.394532 4.65625 10.394532 10.398438v21.578124c0 5.742188-4.652344 10.394532-10.394532 10.394532zm0 0"/><path d="m266.800781 49.871094h-21.582031c-5.742188 0-10.394531-4.652344-10.394531-10.394532v-21.578124c0-5.742188 4.652343-10.398438 10.394531-10.398438h21.582031c5.738281 0 10.394531 4.65625 10.394531 10.398438v21.578124c0 5.742188-4.652343 10.394532-10.394531 10.394532zm0 0"/><path d="m493.621094 49.871094h-21.578125c-5.742188 0-10.394531-4.652344-10.394531-10.394532v-21.578124c0-5.742188 4.652343-10.398438 10.394531-10.398438h21.578125c5.742187 0 10.398437 4.65625 10.398437 10.398438v21.578124c0 5.742188-4.65625 10.394532-10.398437 10.394532zm0 0"/><path d="m39.976562 504.5h-21.578124c-5.742188 0-10.398438-4.65625-10.398438-10.398438v-21.578124c0-5.742188 4.65625-10.394532 10.398438-10.394532h21.578124c5.742188 0 10.394532 4.652344 10.394532 10.394532v21.578124c0 5.742188-4.652344 10.398438-10.394532 10.398438zm0 0"/><path d="m266.800781 504.5h-21.582031c-5.742188 0-10.394531-4.65625-10.394531-10.398438v-21.578124c0-5.742188 4.652343-10.394532 10.394531-10.394532h21.582031c5.738281 0 10.394531 4.652344 10.394531 10.394532v21.578124c0 5.742188-4.652343 10.398438-10.394531 10.398438zm0 0"/><path d="m39.976562 277.1875h-21.578124c-5.742188 0-10.398438-4.65625-10.398438-10.398438v-21.578124c0-5.742188 4.65625-10.398438 10.398438-10.398438h21.578124c5.742188 0 10.394532 4.65625 10.394532 10.398438v21.578124c0 5.742188-4.652344 10.398438-10.394532 10.398438zm0 0"/><path d="m493.621094 277.1875h-21.578125c-5.742188 0-10.394531-4.65625-10.394531-10.398438v-21.578124c0-5.742188 4.652343-10.398438 10.394531-10.398438h21.578125c5.742187 0 10.398437 4.65625 10.398437 10.398438v21.578124c0 5.742188-4.65625 10.398438-10.398437 10.398438zm0 0"/></g><path d="m483.324219 399.046875v73.867187c0 5.742188-4.65625 10.398438-10.398438 10.398438h-73.871093c-9.261719 0-13.902344-11.199219-7.351563-17.75l73.871094-73.871094c6.550781-6.546875 17.75-1.910156 17.75 7.355469zm0 0" fill="#43a3f9"/><path d="m421.867188 249.296875c3.457031 3.816406 3.457031 9.605469 0 13.421875-44.328126 48.902344-102.34375 78.539062-165.851563 78.539062-63.519531 0-121.523437-29.636718-165.859375-78.539062-3.460938-3.816406-3.460938-9.605469-.003906-13.421875 44.339844-48.917969 102.34375-78.554687 165.863281-78.554687 63.507813 0 121.523437 29.636718 165.851563 78.554687zm0 0" fill="#e3f4ff"/><path d="m317.351562 256c0 33.878906-27.460937 61.34375-61.339843 61.34375-33.878907 0-61.34375-27.464844-61.34375-61.34375s27.464843-61.34375 61.34375-61.34375c33.878906 0 61.339843 27.464844 61.339843 61.34375zm0 0" fill="#43a3f9"/><path d="m277.195312 256c0 11.703125-9.484374 21.1875-21.183593 21.1875-11.703125 0-21.1875-9.484375-21.1875-21.1875s9.484375-21.1875 21.1875-21.1875c11.699219 0 21.183593 9.484375 21.183593 21.1875zm0 0" fill="#364ec6"/><path d="m282.148438 238.496094c0 7.21875-5.851563 13.070312-13.070313 13.070312s-13.066406-5.851562-13.066406-13.070312 5.847656-13.070313 13.066406-13.070313 13.070313 5.851563 13.070313 13.070313zm0 0" fill="#e3f4ff"/><path d="m427.421875 267.753906c6.070313-6.695312 6.070313-16.792968.003906-23.492187-47.339843-52.246094-108.214843-81.019531-171.410156-81.019531-63.1875 0-124.066406 28.773437-171.417969 81.019531-6.070312 6.699219-6.070312 16.796875 0 23.496093 7.882813 8.691407 16.335938 16.917969 25.128906 24.449219 3.144532 2.695313 7.878907 2.328125 10.574219-.816406 2.691407-3.148437 2.328125-7.882813-.816406-10.578125-8.3125-7.121094-16.3125-14.902344-23.773437-23.132812-.863282-.953126-.863282-2.390626 0-3.34375 44.472656-49.070313 101.402343-76.09375 160.304687-76.09375 58.90625 0 115.832031 27.023437 160.292969 76.089843.867187.957031.867187 2.394531 0 3.347657-44.464844 49.058593-101.390625 76.078124-160.292969 76.078124-39.039063 0-76.359375-11.359374-110.925781-33.761718-3.476563-2.25-8.117188-1.261719-10.371094 2.21875-2.253906 3.472656-1.261719 8.117187 2.214844 10.371094 36.511718 23.664062 77.691406 36.171874 119.082031 36.171874 63.1875 0 124.0625-28.769531 171.40625-81.003906zm0 0"/><path d="m479.777344 382.511719c-6.714844-2.78125-14.371094-1.257813-19.507813 3.878906l-24.421875 24.421875c-2.925781 2.925781-2.925781 7.675781 0 10.605469 2.929688 2.929687 7.679688 2.929687 10.609375 0l24.421875-24.421875c1.1875-1.191406 2.484375-.90625 3.15625-.628906.667969.277343 1.789063.992187 1.789063 2.675781v73.871093c0 1.601563-1.300781 2.898438-2.898438 2.898438h-73.871093c-1.683594 0-2.398438-1.121094-2.675782-1.789062-.277344-.667969-.5625-1.964844.628906-3.15625l26.355469-26.355469c2.925781-2.929688 2.925781-7.675781 0-10.605469-2.929687-2.929688-7.679687-2.929688-10.609375 0l-26.355468 26.355469c-5.136719 5.136719-6.65625 12.792969-3.878907 19.503906 2.78125 6.710937 9.269531 11.046875 16.535157 11.046875h73.871093c9.871094 0 17.898438-8.027344 17.898438-17.898438v-73.871093c0-7.261719-4.335938-13.753907-11.046875-16.53125zm0 0"/><path d="m493.621094 57.371094c9.871094 0 17.898437-8.027344 17.898437-17.894532v-21.578124c0-9.871094-8.027343-17.898438-17.898437-17.898438h-21.578125c-9.867188 0-17.894531 8.027344-17.894531 17.898438v3.289062h-169.453126v-3.289062c0-9.871094-8.027343-17.898438-17.894531-17.898438h-21.578125c-9.871094 0-17.898437 8.027344-17.898437 17.898438v3.289062h-169.453125v-3.289062c0-9.871094-8.027344-17.898438-17.894532-17.898438h-21.578124c-9.871094 0-17.898438 8.027344-17.898438 17.898438v21.578124c0 9.867188 8.027344 17.894532 17.894531 17.894532h2.800781v169.941406h-2.800781c-9.867187 0-17.894531 8.027344-17.894531 17.898438v21.578124c0 9.867188 8.027344 17.898438 17.894531 17.898438h2.800781v169.9375h-2.800781c-9.867187 0-17.894531 8.027344-17.894531 17.898438v21.578124c0 9.871094 8.027344 17.898438 17.898438 17.898438h21.578124c9.867188 0 17.894532-8.027344 17.894532-17.898438v-3.289062h169.453125v3.289062c0 9.871094 8.027343 17.898438 17.894531 17.898438h21.578125c9.871094 0 17.898437-8.027344 17.898437-17.898438v-21.578124c0-9.867188-8.027343-17.894532-17.898437-17.894532h-21.578125c-9.867188 0-17.894531 8.027344-17.894531 17.894532v3.289062h-169.453125v-3.289062c0-9.867188-8.027344-17.894532-17.894532-17.894532h-3.78125v-169.941406h3.78125c9.867188 0 17.894532-8.027344 17.894532-17.898438v-21.578124c0-9.871094-8.027344-17.898438-17.894532-17.898438h-3.78125v-169.941406h3.78125c9.867188 0 17.894532-8.027344 17.894532-17.894532v-3.289062h169.453125v3.289062c0 9.867188 8.027343 17.894532 17.894531 17.894532h21.578125c9.871094 0 17.898437-8.027344 17.898437-17.894532v-3.289062h169.449219v3.289062c0 9.867188 8.027344 17.894532 17.898438 17.894532h3.777343v169.941406h-3.777343c-9.871094 0-17.898438 8.027344-17.898438 17.898438v21.578124c0 9.867188 8.027344 17.898438 17.898438 17.898438h21.578125c9.867187 0 17.894531-8.03125 17.894531-17.898438v-21.578124c0-9.871094-8.027344-17.898438-17.894531-17.898438h-2.800782v-169.941406zm-251.296875 415.152344c0-1.597657 1.296875-2.894532 2.894531-2.894532h21.578125c1.597656 0 2.898437 1.296875 2.898437 2.894532v21.578124c0 1.597657-1.300781 2.898438-2.898437 2.898438h-21.578125c-1.597656 0-2.894531-1.300781-2.894531-2.898438zm-202.347657-2.894532c1.597657 0 2.894532 1.296875 2.894532 2.894532v21.578124c0 1.597657-1.296875 2.898438-2.894532 2.898438h-21.578124c-1.597657 0-2.898438-1.300781-2.898438-2.898438v-21.578124c0-1.597657 1.300781-2.894532 2.898438-2.894532zm0-227.316406c1.597657 0 2.894532 1.300781 2.894532 2.898438v21.578124c0 1.597657-1.296875 2.898438-2.894532 2.898438h-21.578124c-1.597657 0-2.898438-1.300781-2.898438-2.898438v-21.578124c0-1.597657 1.300781-2.898438 2.898438-2.898438zm2.894532-202.835938c0 1.597657-1.296875 2.894532-2.894532 2.894532h-21.578124c-1.597657 0-2.898438-1.296875-2.898438-2.894532v-21.578124c0-1.597657 1.300781-2.898438 2.898438-2.898438h21.578124c1.597657 0 2.894532 1.300781 2.894532 2.898438zm226.824218 0c0 1.597657-1.296874 2.894532-2.894531 2.894532h-21.578125c-1.597656 0-2.898437-1.296875-2.898437-2.894532v-21.578124c0-1.597657 1.300781-2.898438 2.898437-2.898438h21.578125c1.597657 0 2.894531 1.300781 2.894531 2.898438zm223.925782 202.835938c1.597656 0 2.898437 1.300781 2.898437 2.898438v21.578124c0 1.597657-1.300781 2.898438-2.898437 2.898438h-21.578125c-1.597657 0-2.894531-1.300781-2.894531-2.898438v-21.578124c0-1.597657 1.296874-2.898438 2.894531-2.898438zm-21.578125-199.941406c-1.597657 0-2.894531-1.296875-2.894531-2.894532v-21.578124c0-1.597657 1.296874-2.898438 2.894531-2.898438h21.578125c1.597656 0 2.898437 1.300781 2.898437 2.898438v21.578124c0 1.597657-1.300781 2.894532-2.898437 2.894532zm0 0"/><path d="m308.789062 245.308594c.816407 4.058594 4.773438 6.691406 8.832032 5.871094 4.0625-.820313 6.6875-4.773438 5.871094-8.832032-6.4375-31.980468-34.820313-55.191406-67.480469-55.191406-37.960938 0-68.84375 30.882812-68.84375 68.84375s30.882812 68.84375 68.84375 68.84375c29.097656 0 55.175781-18.425781 64.894531-45.851562 1.382812-3.902344-.660156-8.191407-4.566406-9.574219-3.90625-1.382813-8.191406.660156-9.574219 4.5625-7.597656 21.449219-27.996094 35.863281-50.753906 35.863281-29.691407 0-53.84375-24.15625-53.84375-53.84375 0-29.691406 24.152343-53.84375 53.84375-53.84375 25.546875 0 47.742187 18.148438 52.777343 43.152344zm0 0"/><path d="m269.078125 217.925781c-7.355469 0-13.804687 3.898438-17.441406 9.722657-13.75 2.109374-24.3125 14.019531-24.3125 28.351562 0 15.820312 12.867187 28.6875 28.6875 28.6875 15.816406 0 28.683593-12.867188 28.683593-28.6875 0-1.292969-.09375-2.582031-.265624-3.859375 3.234374-3.632813 5.21875-8.40625 5.21875-13.644531 0-11.34375-9.226563-20.570313-20.570313-20.570313zm0 15c3.070313 0 5.570313 2.5 5.570313 5.570313 0 3.070312-2.5 5.570312-5.570313 5.570312s-5.566406-2.5-5.566406-5.570312c0-3.070313 2.496093-5.570313 5.566406-5.570313zm-13.066406 36.761719c-7.546875 0-13.6875-6.140625-13.6875-13.6875 0-5.109375 2.816406-9.566406 6.976562-11.917969 2.441407 8.632813 10.375 14.980469 19.777344 14.980469.089844 0 .175781-.011719.261719-.011719-1.390625 6.082031-6.832032 10.636719-13.328125 10.636719zm0 0"/><path d="m256.019531 141.347656h.019531c4.140626-.007812 7.488282-3.375 7.480469-7.519531l-.023437-8.289063c-.007813-4.136718-3.363282-7.480468-7.5-7.480468-.003906 0-.011719 0-.015625 0-4.144531.011718-7.492188 3.375-7.484375 7.519531l.023437 8.289063c.011719 4.136718 3.367188 7.480468 7.5 7.480468zm0 0"/><path d="m236.203125 144.988281c1.277344 0 2.574219-.328125 3.757813-1.015625 3.582031-2.078125 4.800781-6.667968 2.722656-10.25l-4.164063-7.171875c-2.078125-3.582031-6.667969-4.796875-10.25-2.71875s-4.800781 6.667969-2.722656 10.25l4.164063 7.171875c1.390624 2.394532 3.90625 3.734375 6.492187 3.734375zm0 0"/><path d="m275.851562 144.890625c2.597657 0 5.125-1.351563 6.511719-3.769531l4.128907-7.1875c2.0625-3.589844.820312-8.175782-2.773438-10.238282-3.589844-2.0625-8.175781-.820312-10.238281 2.773438l-4.125 7.1875c-2.0625 3.589844-.820313 8.175781 2.769531 10.238281 1.175781.675781 2.460938.996094 3.726562.996094zm0 0"/><path d="m256 370.652344c-.003906 0-.011719 0-.019531 0-4.140625.007812-7.488281 3.375-7.480469 7.519531l.023438 8.289063c.007812 4.136718 3.363281 7.480468 7.5 7.480468h.015624c4.144532-.011718 7.492188-3.375 7.484376-7.519531l-.023438-8.289063c-.011719-4.136718-3.363281-7.480468-7.5-7.480468zm0 0"/><path d="m282.308594 370.746094c-2.078125-3.582032-6.667969-4.796875-10.25-2.71875-3.582032 2.078125-4.800782 6.667968-2.722656 10.25l4.164062 7.171875c1.390625 2.394531 3.90625 3.734375 6.492188 3.734375 1.277343 0 2.574218-.328125 3.757812-1.015625 3.582031-2.078125 4.800781-6.667969 2.722656-10.25zm0 0"/><path d="m229.65625 370.875-4.128906 7.191406c-2.058594 3.589844-.820313 8.175782 2.773437 10.238282 1.175781.675781 2.460938.996093 3.726563.996093 2.597656 0 5.125-1.355469 6.511718-3.769531l4.125-7.1875c2.0625-3.59375.824219-8.175781-2.769531-10.238281-3.589843-2.0625-8.175781-.820313-10.238281 2.769531zm0 0"/></svg>